<svg width="25" height="25" viewBox="0 0 25 25" fill="none" xmlns="http://www.w3.org/2000/svg">
<g id="left icon">
<g id="Union">
<path d="M12.5 7.5C13.0523 7.5 13.5 7.94772 13.5 8.5V12.5C13.5 13.0523 13.0523 13.5 12.5 13.5C11.9477 13.5 11.5 13.0523 11.5 12.5V8.5C11.5 7.94772 11.9477 7.5 12.5 7.5Z" fill="white"/>
<path d="M12.5 15.5C11.9477 15.5 11.5 15.9477 11.5 16.5C11.5 17.0523 11.9477 17.5 12.5 17.5H12.51C13.0623 17.5 13.51 17.0523 13.51 16.5C13.51 15.9477 13.0623 15.5 12.51 15.5H12.5Z" fill="white"/>
<path fill-rule="evenodd" clip-rule="evenodd" d="M7.65289 1.79289C7.84043 1.60536 8.09478 1.5 8.36 1.5H16.64C16.9052 1.5 17.1596 1.60536 17.3471 1.79289L23.2071 7.65289C23.3946 7.84043 23.5 8.09478 23.5 8.36V16.64C23.5 16.9052 23.3946 17.1596 23.2071 17.3471L17.3471 23.2071C17.1596 23.3946 16.9052 23.5 16.64 23.5H8.36C8.09478 23.5 7.84043 23.3946 7.65289 23.2071L1.79289 17.3471C1.60536 17.1596 1.5 16.9052 1.5 16.64V8.36C1.5 8.09478 1.60536 7.84043 1.79289 7.65289L7.65289 1.79289ZM8.77421 3.5L3.5 8.77421V16.2258L8.77421 21.5H16.2258L21.5 16.2258V8.77421L16.2258 3.5H8.77421Z" fill="white"/>
</g>
</g>
</svg>
