<svg width="17" height="16" viewBox="0 0 17 16" fill="none" xmlns="http://www.w3.org/2000/svg">
<g id="alert-triangle" clip-path="url(#clip0_2442_5575)">
<path id="Union" fill-rule="evenodd" clip-rule="evenodd" d="M7.518 1.52188C7.81753 1.35324 8.15547 1.26465 8.4992 1.26465C8.84294 1.26465 9.18087 1.35324 9.4804 1.52188C9.77992 1.69051 10.0309 1.9335 10.2092 2.22739L10.2111 2.23056L15.8578 11.6572L15.8632 11.6664C16.0378 11.9689 16.1302 12.3117 16.1312 12.661C16.1322 13.0102 16.0417 13.3536 15.8688 13.657C15.6958 13.9604 15.4465 14.2132 15.1455 14.3903C14.8445 14.5674 14.5024 14.6626 14.1532 14.6664L14.1459 14.6665L2.84521 14.6665C2.496 14.6626 2.15389 14.5674 1.85291 14.3903C1.55193 14.2132 1.30257 13.9604 1.12963 13.657C0.956697 13.3536 0.866218 13.0102 0.867195 12.661C0.868173 12.3117 0.960575 11.9689 1.13521 11.6664L1.14062 11.6572L6.78919 2.22739C6.96746 1.93349 7.21848 1.69051 7.518 1.52188ZM8.4992 2.59798C8.38462 2.59798 8.27198 2.62751 8.17214 2.68372C8.07274 2.73968 7.98938 2.8202 7.93001 2.91757L2.28766 12.337C2.23087 12.4369 2.20085 12.5498 2.20052 12.6647C2.2002 12.7811 2.23036 12.8956 2.288 12.9967C2.34565 13.0978 2.42877 13.1821 2.5291 13.2411C2.62855 13.2997 2.74146 13.3313 2.8568 13.3331H14.1416C14.2569 13.3313 14.3699 13.2997 14.4693 13.2411C14.5696 13.1821 14.6528 13.0978 14.7104 12.9967C14.768 12.8956 14.7982 12.7811 14.7979 12.6647C14.7976 12.5498 14.7675 12.4369 14.7108 12.3371L9.0692 2.9189L9.06839 2.91757C9.00902 2.8202 8.92566 2.73968 8.82627 2.68372C8.72642 2.62751 8.61378 2.59798 8.4992 2.59798ZM8.49919 5.33315C8.86738 5.33315 9.16585 5.63162 9.16585 5.99981V8.66648C9.16585 9.03467 8.86738 9.33314 8.49919 9.33314C8.131 9.33314 7.83252 9.03467 7.83252 8.66648V5.99981C7.83252 5.63162 8.131 5.33315 8.49919 5.33315ZM8.49919 10.6665C8.131 10.6665 7.83252 10.965 7.83252 11.3331C7.83252 11.7013 8.131 11.9998 8.49919 11.9998H8.50585C8.87404 11.9998 9.17252 11.7013 9.17252 11.3331C9.17252 10.965 8.87404 10.6665 8.50585 10.6665H8.49919Z" fill="#E4294B"/>
</g>
<defs>
<clipPath id="clip0_2442_5575">
<rect width="16" height="16" fill="white" transform="translate(0.5)"/>
</clipPath>
</defs>
</svg>
