<svg width="25" height="25" viewBox="0 0 25 25" fill="none" xmlns="http://www.w3.org/2000/svg">
<g id="icon right" clip-path="url(#clip0_2442_7146)">
<path id="Vector (Stroke)" fill-rule="evenodd" clip-rule="evenodd" d="M12.4977 5.93752C11.8682 5.93604 11.2408 6.00775 10.6279 6.15121C10.0902 6.27708 9.55219 5.94319 9.42632 5.40544C9.30045 4.86769 9.63434 4.32972 10.1721 4.20384C10.9355 4.02515 11.7171 3.93578 12.5012 3.93753C12.5016 3.93753 12.502 3.93753 12.5023 3.93753L12.5 4.93753V3.93753C12.5004 3.93753 12.5008 3.93753 12.5012 3.93753C16.4001 3.93796 19.3957 6.16417 21.3545 8.25358C22.3432 9.30812 23.0979 10.3588 23.6057 11.145C23.8601 11.539 24.0542 11.8692 24.186 12.1035C24.252 12.2208 24.3025 12.3142 24.3372 12.38C24.3546 12.4128 24.3681 12.4388 24.3777 12.4573L24.389 12.4796L24.3925 12.4864L24.3936 12.4887C24.3938 12.4891 24.3944 12.4903 23.5 12.9375L22.6181 12.4661C22.5338 12.6239 22.447 12.7803 22.358 12.9353C22.2488 12.7468 22.1044 12.5069 21.9256 12.2301C21.4646 11.5162 20.7818 10.5669 19.8955 9.62147C18.1045 7.71109 15.6005 5.93753 12.5 5.93753L12.4977 5.93752ZM22.358 12.9353C21.8406 13.8357 21.2439 14.6886 20.5748 15.4837C20.2193 15.9063 20.2736 16.5371 20.6962 16.8927C21.1187 17.2483 21.7496 17.194 22.1052 16.7714C22.979 15.7328 23.7421 14.6059 24.3819 13.4089C24.5348 13.1229 24.5395 12.7804 24.3944 12.4903L23.5 12.9375C22.6056 13.3847 22.6057 13.385 22.6058 13.3853L22.6051 13.3839L22.599 13.3718C22.5929 13.3601 22.5831 13.3411 22.5695 13.3154C22.5423 13.264 22.5 13.1855 22.4429 13.084C22.4175 13.0389 22.3892 12.9892 22.358 12.9353ZM7.35478 6.39062C7.68996 6.82957 7.60584 7.45712 7.1669 7.7923C5.33188 9.19354 3.79462 10.9439 2.64257 12.9407C2.75165 13.1291 2.89592 13.3686 3.07441 13.645C3.53543 14.3588 4.21817 15.3081 5.10454 16.2536C6.89395 18.1623 9.39512 19.9344 12.4918 19.9375C14.4246 19.9042 16.2963 19.2542 17.8338 18.0822C18.273 17.7474 18.9005 17.8321 19.2353 18.2713C19.5701 18.7105 19.4855 19.338 19.0462 19.6728C17.1671 21.1052 14.8789 21.8988 12.5163 21.9374L12.5 21.9375C8.60049 21.9375 5.60448 19.7111 3.64546 17.6215C2.65683 16.5669 1.90207 15.5162 1.39434 14.7301C1.13985 14.336 0.945792 14.0059 0.813971 13.7715C0.748023 13.6543 0.69754 13.5608 0.662753 13.4951C0.645357 13.4622 0.631875 13.4363 0.622338 13.4177L0.61099 13.3955L0.607539 13.3887L0.60637 13.3863C0.606186 13.386 0.605573 13.3847 1.5 12.9375L0.605573 13.3847C0.460261 13.0941 0.465211 12.751 0.618844 12.4647C1.93015 10.021 3.74891 7.88589 5.9531 6.20275C6.39204 5.86757 7.0196 5.95168 7.35478 6.39062ZM11.1116 10.1358C11.4881 10.5399 11.4658 11.1726 11.0617 11.5491C10.8652 11.7322 10.7076 11.953 10.5983 12.1984C10.489 12.4437 10.4302 12.7085 10.4255 12.9771C10.4207 13.2456 10.4701 13.5124 10.5707 13.7614C10.6713 14.0104 10.821 14.2367 11.011 14.4266C11.2009 14.6165 11.4271 14.7662 11.6761 14.8668C11.9252 14.9674 12.1919 15.0168 12.4604 15.012C12.729 15.0073 12.9938 14.9485 13.2392 14.8392C13.4845 14.7299 13.7053 14.5723 13.8884 14.3758C14.2649 13.9717 14.8977 13.9494 15.3017 14.3259C15.7058 14.7024 15.7281 15.3352 15.3516 15.7392C14.9854 16.1322 14.5438 16.4475 14.0531 16.6661C13.5625 16.8847 13.0328 17.0023 12.4957 17.0117C11.9586 17.0212 11.4252 16.9224 10.9271 16.7212C10.429 16.5201 9.97657 16.2206 9.59674 15.8408C9.21691 15.461 8.91747 15.0085 8.71629 14.5104C8.51511 14.0124 8.41631 13.4789 8.42579 12.9418C8.43527 12.4047 8.55282 11.875 8.77145 11.3844C8.99007 10.8937 9.30528 10.4521 9.69828 10.0859C10.1023 9.70941 10.7351 9.73175 11.1116 10.1358Z" fill="#88828E"/>
<path id="Vector (Stroke)_2" fill-rule="evenodd" clip-rule="evenodd" d="M0.792893 1.23039C1.18342 0.839869 1.81658 0.839869 2.20711 1.23039L24.2071 23.2304C24.5976 23.6209 24.5976 24.2541 24.2071 24.6446C23.8166 25.0351 23.1834 25.0351 22.7929 24.6446L0.792893 2.64461C0.402369 2.25408 0.402369 1.62092 0.792893 1.23039Z" fill="#88828E"/>
</g>
<defs>
<clipPath id="clip0_2442_7146">
<rect width="24" height="24" fill="white" transform="translate(0.5 0.9375)"/>
</clipPath>
</defs>
</svg>
